<svg xmlns="http://www.w3.org/2000/svg" width="425" height="235" viewBox="0 0 425 235">
<g>
<path d="M 238.00 185.48 C238.00,207.15 237.77,208.50 234.25,207.27 C232.44,206.64 232.44,164.42 234.25,163.75 C237.77,162.46 238.00,163.80 238.00,185.48 ZM 370.00 125.11 C370.00,135.85 369.97,136.00 367.67,136.00 C366.38,136.00 365.03,135.70 364.67,135.33 C364.30,134.97 364.00,130.06 364.00,124.44 C364.00,113.83 364.69,112.18 368.50,113.64 C369.71,114.10 370.00,116.35 370.00,125.11 ZM 72.00 86.00 C72.00,94.76 71.94,95.00 69.67,95.00 C68.38,95.00 67.03,94.70 66.67,94.33 C66.30,93.97 66.00,89.92 66.00,85.33 L 66.00 77.00 L 72.00 77.00 ZM 125.00 75.61 L 125.00 84.00 L 119.00 84.00 L 119.00 75.61 C119.00,69.07 119.33,67.09 120.50,66.64 C124.15,65.24 125.00,66.93 125.00,75.61 ZM 335.00 131.61 C335.00,139.73 334.93,140.00 332.67,140.00 C331.38,140.00 330.03,139.70 329.67,139.33 C329.30,138.97 329.00,135.19 329.00,130.94 C329.00,122.96 329.92,121.26 333.50,122.64 C334.67,123.09 335.00,125.07 335.00,131.61 ZM 11.00 42.61 L 11.00 50.00 L 5.00 50.00 L 5.00 42.61 C5.00,36.96 5.35,35.08 6.50,34.64 C10.04,33.28 11.00,34.97 11.00,42.61 ZM 264.79 137.75 C264.53,144.68 264.28,145.53 262.46,145.79 C259.38,146.23 259.00,145.30 259.00,137.33 L 259.00 130.00 L 265.08 130.00 ZM 396.00 99.56 L 396.00 106.00 L 390.00 106.00 L 390.00 99.62 C390.00,93.90 390.23,93.17 392.17,92.66 C395.53,91.79 396.00,92.63 396.00,99.56 ZM 273.80 128.38 C273.55,132.65 273.16,133.55 271.46,133.79 C268.55,134.21 268.00,133.28 268.00,127.94 C268.00,123.04 269.38,121.44 272.55,122.66 C273.73,123.11 274.02,124.48 273.80,128.38 ZM 317.80 156.38 C317.54,159.95 317.16,160.54 314.96,160.80 C311.63,161.18 311.00,160.41 311.00,155.95 C311.00,153.02 311.44,152.12 313.10,151.69 C316.90,150.69 318.13,151.92 317.80,156.38 ZM 158.57 117.70 C157.77,118.15 156.96,120.49 156.74,123.00 L 156.35 127.50 L 156.17 122.81 C156.08,120.23 155.55,117.84 155.00,117.50 C154.45,117.16 154.00,115.33 154.00,113.44 C154.00,111.55 154.45,110.00 155.00,110.00 C155.55,110.00 156.03,108.99 156.06,107.75 L 156.13 105.50 L 157.03 107.75 C157.53,108.99 158.40,110.00 158.97,110.00 C160.55,110.00 160.20,116.79 158.57,117.70 ZM 423.00 87.78 C423.00,90.21 422.34,92.12 421.15,93.14 C419.46,94.59 419.21,94.57 418.15,92.87 C416.78,90.67 416.61,84.00 417.93,84.00 C418.44,84.00 419.06,83.21 419.31,82.25 C419.75,80.58 419.77,80.58 419.88,82.25 C419.95,83.21 420.67,84.00 421.50,84.00 C422.57,84.00 423.00,85.09 423.00,87.78 ZM 19.00 33.50 C19.00,37.83 18.89,38.00 16.00,38.00 C13.11,38.00 13.00,37.83 13.00,33.50 C13.00,29.17 13.11,29.00 16.00,29.00 C18.89,29.00 19.00,29.17 19.00,33.50 ZM 343.80 124.38 C343.56,127.64 343.08,128.56 341.46,128.79 C338.65,129.19 338.00,128.28 338.00,123.94 C338.00,120.06 339.62,118.53 342.55,119.66 C343.68,120.09 344.02,121.37 343.80,124.38 ZM 54.00 68.06 C54.00,71.52 53.72,72.00 51.67,72.00 C48.58,72.00 48.00,71.28 48.00,67.45 C48.00,64.99 48.51,64.10 50.17,63.66 C53.31,62.84 54.00,63.63 54.00,68.06 ZM 115.81 95.25 C115.58,97.63 114.95,98.58 113.46,98.79 C110.78,99.17 110.00,98.28 110.00,94.83 C110.00,92.34 110.37,92.00 113.06,92.00 C115.92,92.00 116.11,92.22 115.81,95.25 ZM 80.81 69.25 C80.58,71.63 79.95,72.58 78.46,72.79 C75.78,73.17 75.00,72.28 75.00,68.83 C75.00,66.34 75.37,66.00 78.06,66.00 C80.92,66.00 81.11,66.22 80.81,69.25 ZM 256.00 160.88 C256.00,162.79 255.41,163.92 254.25,164.22 C251.31,164.98 250.00,163.97 250.00,160.92 C250.00,158.34 250.35,158.00 253.00,158.00 C255.64,158.00 256.00,158.35 256.00,160.88 ZM 1.00 60.50 C0.35,60.90 0.00,91.18 0.00,148.06 L 0.00 26.50 C0.00,43.50 0.36,53.00 1.00,53.00 C2.30,53.00 2.30,59.69 1.00,60.50 ZM 414.00 93.00 C414.00,95.48 413.59,96.00 411.67,96.00 C408.73,96.00 408.00,95.27 408.00,92.33 C408.00,90.41 408.52,90.00 411.00,90.00 C413.67,90.00 414.00,90.33 414.00,93.00 ZM 177.00 115.50 C177.00,117.61 176.53,118.00 174.00,118.00 C171.47,118.00 171.00,117.61 171.00,115.50 C171.00,113.39 171.47,113.00 174.00,113.00 C176.53,113.00 177.00,113.39 177.00,115.50 ZM 282.00 123.50 C282.00,125.45 281.49,126.00 279.67,126.00 C276.85,126.00 276.00,125.26 276.00,122.83 C276.00,121.46 276.76,121.00 279.00,121.00 C281.53,121.00 282.00,121.39 282.00,123.50 ZM 378.80 108.38 C378.50,110.48 375.13,111.80 373.71,110.38 C372.46,109.13 372.95,106.23 374.50,105.64 C376.96,104.70 379.13,106.08 378.80,108.38 ZM 353.00 127.11 C353.00,128.54 352.28,129.00 350.00,129.00 C347.72,129.00 347.00,128.54 347.00,127.11 C347.00,126.07 347.67,124.95 348.50,124.64 C350.77,123.77 353.00,124.99 353.00,127.11 ZM 387.81 108.75 C387.47,110.54 383.98,111.65 382.71,110.38 C380.99,108.66 382.15,107.00 385.07,107.00 C387.46,107.00 388.07,107.39 387.81,108.75 ZM 326.00 142.00 C326.00,142.55 324.65,143.00 323.00,143.00 C321.35,143.00 320.00,142.55 320.00,142.00 C320.00,141.45 321.35,141.00 323.00,141.00 C324.65,141.00 326.00,141.45 326.00,142.00 Z" fill="rgb(0,255,0)"/>
<path d="M 242.82 210.59 C238.88,212.63 227.87,213.36 223.07,211.89 C221.19,211.32 217.79,209.57 215.52,208.01 C201.40,198.30 200.10,176.78 212.97,165.76 C216.10,163.08 217.03,161.55 217.15,158.90 C217.29,155.74 217.33,155.70 217.73,158.35 C218.08,160.75 218.49,161.09 220.33,160.51 C227.80,158.16 236.13,158.17 242.25,160.54 C243.65,161.08 244.03,160.65 244.13,158.36 C244.26,155.64 244.29,155.67 244.88,158.88 C245.28,161.06 246.65,163.15 248.75,164.76 C250.54,166.13 252.00,166.75 252.00,166.13 C252.00,165.51 251.55,165.00 251.00,165.00 C250.45,165.00 250.00,163.43 250.00,161.50 C250.00,161.36 250.00,161.23 250.00,161.10 C250.05,164.01 251.36,164.97 254.25,164.22 C255.37,163.93 255.96,162.86 256.00,161.06 C256.00,161.20 256.00,161.35 256.00,161.50 C256.00,163.94 255.55,165.00 254.50,165.00 C252.31,165.00 252.65,167.59 255.64,173.69 C258.96,180.48 259.20,190.11 256.22,197.01 C254.15,201.80 248.25,207.78 242.82,210.59 ZM 238.00 185.48 C238.00,163.80 237.77,162.46 234.25,163.75 C232.44,164.42 232.44,206.64 234.25,207.27 C237.77,208.50 238.00,207.15 238.00,185.48 ZM 225.25 195.27 C228.33,196.35 229.00,194.77 229.00,186.39 C229.00,178.11 228.97,178.00 226.50,178.00 C224.03,178.00 224.00,178.11 224.00,186.42 C224.00,192.25 224.38,194.97 225.25,195.27 ZM 215.00 168.00 L 215.00 181.00 L 221.00 181.00 L 221.00 168.00 ZM 241.00 168.12 C241.00,168.60 242.35,169.00 244.00,169.00 C246.99,169.00 248.12,167.54 245.75,166.75 C244.03,166.17 241.00,167.04 241.00,168.12 ZM 255.47 158.47 C255.05,158.08 254.30,158.00 253.00,158.00 C254.31,158.00 255.05,158.06 255.47,158.47 ZM 253.00 158.00 C251.70,158.00 250.95,158.08 250.53,158.47 C250.95,158.06 251.69,158.00 253.00,158.00 Z" fill="rgb(208,233,60)"/>
<path d="M 151.00 102.11 L 151.00 115.00 L 145.00 115.00 L 145.00 102.11 C145.00,88.68 145.52,87.11 149.50,88.64 C150.73,89.11 151.00,91.57 151.00,102.11 ZM 203.79 133.75 C203.52,142.69 203.33,143.52 201.46,143.79 C200.34,143.95 199.10,143.77 198.71,143.38 C198.32,142.99 198.00,138.47 198.00,133.33 L 198.00 124.00 L 204.07 124.00 ZM 63.00 69.50 C63.00,78.79 62.95,79.00 60.67,79.00 C59.38,79.00 58.03,78.70 57.67,78.33 C57.30,77.97 57.00,73.69 57.00,68.83 L 57.00 60.00 L 63.00 60.00 ZM 309.00 160.96 C309.00,168.66 308.74,170.07 307.15,170.92 C303.97,172.62 303.00,170.27 303.00,160.80 C303.00,155.96 303.42,152.00 303.93,152.00 C304.44,152.00 305.06,151.21 305.31,150.25 C305.75,148.58 305.77,148.58 305.88,150.25 C305.95,151.21 306.67,152.00 307.50,152.00 C308.72,152.00 309.00,153.66 309.00,160.96 ZM 98.00 75.00 C98.00,82.71 97.92,83.00 95.67,83.00 C94.38,83.00 93.03,82.70 92.67,82.33 C92.30,81.97 92.00,78.37 92.00,74.33 L 92.00 67.00 L 98.00 67.00 ZM 142.00 77.00 L 142.00 92.00 L 136.00 92.00 L 136.00 77.00 ZM 212.00 157.06 L 212.00 164.00 L 206.00 164.00 L 206.00 157.12 C206.00,150.89 206.21,150.18 208.17,149.66 C211.56,148.78 212.00,149.63 212.00,157.06 ZM 291.00 130.11 L 291.00 137.00 L 285.00 137.00 L 285.00 130.11 C285.00,122.99 286.02,121.30 289.50,122.64 C290.63,123.07 291.00,124.90 291.00,130.11 ZM 225.25 195.27 C224.38,194.97 224.00,192.25 224.00,186.42 C224.00,178.11 224.03,178.00 226.50,178.00 C228.97,178.00 229.00,178.11 229.00,186.39 C229.00,194.77 228.33,196.35 225.25,195.27 ZM 107.00 83.00 L 107.00 96.00 L 101.00 96.00 L 101.00 83.00 ZM 215.00 168.00 L 221.00 168.00 L 221.00 181.00 L 215.00 181.00 ZM 193.56 124.00 C192.69,124.00 191.97,125.28 191.72,127.25 L 191.32 130.50 L 191.16 127.25 C191.07,125.46 190.55,124.00 190.00,124.00 C189.44,124.00 189.00,121.33 189.00,118.00 C189.00,114.70 189.42,112.00 189.93,112.00 C190.45,112.00 191.05,110.76 191.28,109.25 L 191.70 106.50 L 191.85 109.25 C191.94,110.96 192.57,112.00 193.50,112.00 C194.67,112.00 195.00,113.33 195.00,118.00 C195.00,122.55 194.65,124.00 193.56,124.00 ZM 300.00 138.00 L 300.00 150.00 L 294.00 150.00 L 294.00 138.00 ZM 168.00 112.06 C168.00,116.88 167.93,117.00 165.00,117.00 C162.08,117.00 162.00,116.88 162.00,112.12 C162.00,107.94 162.32,107.15 164.17,106.66 C167.42,105.82 168.00,106.63 168.00,112.06 ZM 44.57 67.00 C43.78,67.00 42.94,68.01 42.71,69.25 L 42.27 71.50 L 42.14 69.25 C42.06,68.01 41.55,67.00 41.00,67.00 C40.45,67.00 40.00,65.20 40.00,63.00 C40.00,60.80 40.42,59.00 40.93,59.00 C41.44,59.00 42.06,58.21 42.31,57.25 C42.75,55.58 42.77,55.58 42.88,57.25 C42.95,58.21 43.67,59.00 44.50,59.00 C45.58,59.00 46.00,60.11 46.00,63.00 C46.00,65.80 45.57,67.00 44.57,67.00 ZM 361.00 132.06 C361.00,135.77 360.83,136.00 358.00,136.00 C355.18,136.00 355.00,135.76 355.00,132.12 C355.00,128.97 355.41,128.13 357.17,127.66 C360.31,126.84 361.00,127.63 361.00,132.06 ZM 37.00 51.00 C37.00,54.52 36.72,55.00 34.67,55.00 C31.56,55.00 31.00,54.28 31.00,50.33 C31.00,47.30 31.27,47.00 34.00,47.00 C36.83,47.00 37.00,47.22 37.00,51.00 ZM 28.00 42.50 C28.00,45.72 27.76,46.00 25.00,46.00 C22.24,46.00 22.00,45.72 22.00,42.50 C22.00,39.28 22.24,39.00 25.00,39.00 C27.76,39.00 28.00,39.28 28.00,42.50 ZM 133.00 72.50 C133.00,75.50 132.67,76.00 130.67,76.00 C127.64,76.00 127.00,75.28 127.00,71.83 C127.00,69.35 127.37,69.00 130.00,69.00 C132.76,69.00 133.00,69.28 133.00,72.50 ZM 405.00 98.00 C405.00,99.56 404.33,100.00 402.00,100.00 C399.67,100.00 399.00,99.56 399.00,98.00 C399.00,96.44 399.67,96.00 402.00,96.00 C404.33,96.00 405.00,96.44 405.00,98.00 ZM 186.00 123.00 C186.00,124.56 185.33,125.00 183.00,125.00 C180.67,125.00 180.00,124.56 180.00,123.00 C180.00,121.44 180.67,121.00 183.00,121.00 C185.33,121.00 186.00,121.44 186.00,123.00 ZM 89.76 68.25 C89.29,69.67 85.78,70.45 84.71,69.38 C83.22,67.89 84.11,67.00 87.08,67.00 C89.10,67.00 90.02,67.43 89.76,68.25 ZM 241.00 168.12 C241.00,167.04 244.03,166.17 245.75,166.75 C248.12,167.54 246.99,169.00 244.00,169.00 C242.35,169.00 241.00,168.60 241.00,168.12 Z" fill="rgb(255,0,0)"/>
<path d="M 0.00 148.06 C0.00,91.18 0.35,60.90 1.00,60.50 C2.30,59.69 2.30,53.00 1.00,53.00 C0.36,53.00 0.00,43.50 0.00,26.50 L 0.00 0.00 L 212.50 0.00 L 425.00 0.00 L 425.00 117.50 L 425.00 235.00 L 212.50 235.00 L 0.00 235.00 L 0.00 148.06 ZM 242.82 210.59 C248.25,207.78 254.15,201.80 256.22,197.01 C259.20,190.11 258.96,180.48 255.64,173.69 C252.65,167.59 252.31,165.00 254.50,165.00 C255.55,165.00 256.00,163.94 256.00,161.50 C256.00,158.28 255.76,158.00 253.00,158.00 C250.24,158.00 250.00,158.28 250.00,161.50 C250.00,163.43 250.45,165.00 251.00,165.00 C251.55,165.00 252.00,165.51 252.00,166.13 C252.00,166.75 250.54,166.13 248.75,164.76 C246.65,163.15 245.28,161.06 244.88,158.88 C244.29,155.67 244.26,155.64 244.13,158.36 C244.03,160.65 243.65,161.08 242.25,160.54 C236.13,158.17 227.80,158.16 220.33,160.51 C218.49,161.09 218.08,160.75 217.73,158.35 C217.33,155.70 217.29,155.74 217.15,158.90 C217.03,161.55 216.10,163.08 212.97,165.76 C200.10,176.78 201.40,198.30 215.52,208.01 C217.79,209.57 221.19,211.32 223.07,211.89 C227.87,213.36 238.88,212.63 242.82,210.59 ZM 309.00 160.96 C309.00,153.66 308.72,152.00 307.50,152.00 C306.67,152.00 305.95,151.21 305.88,150.25 C305.77,148.58 305.75,148.58 305.31,150.25 C305.06,151.21 304.44,152.00 303.93,152.00 C303.42,152.00 303.00,155.96 303.00,160.80 C303.00,170.27 303.97,172.62 307.15,170.92 C308.74,170.07 309.00,168.66 309.00,160.96 ZM 212.00 157.06 C212.00,149.63 211.56,148.78 208.17,149.66 C206.21,150.18 206.00,150.89 206.00,157.12 L 206.00 164.00 L 209.00 164.00 L 212.00 164.00 L 212.00 157.06 ZM 317.80 156.38 C318.13,151.92 316.90,150.69 313.10,151.69 C311.44,152.12 311.00,153.02 311.00,155.95 C311.00,160.41 311.63,161.18 314.96,160.80 C317.16,160.54 317.54,159.95 317.80,156.38 ZM 300.00 144.00 L 300.00 138.00 L 297.00 138.00 L 294.00 138.00 L 294.00 144.00 L 294.00 150.00 L 297.00 150.00 L 300.00 150.00 L 300.00 144.00 ZM 264.79 137.75 L 265.08 130.00 L 262.04 130.00 L 259.00 130.00 L 259.00 137.33 C259.00,145.30 259.38,146.23 262.46,145.79 C264.28,145.53 264.53,144.68 264.79,137.75 ZM 203.79 133.75 L 204.07 124.00 L 201.04 124.00 L 198.00 124.00 L 198.00 133.33 C198.00,138.47 198.32,142.99 198.71,143.38 C199.10,143.77 200.34,143.95 201.46,143.79 C203.33,143.52 203.52,142.69 203.79,133.75 ZM 326.00 142.00 C326.00,141.45 324.65,141.00 323.00,141.00 C321.35,141.00 320.00,141.45 320.00,142.00 C320.00,142.55 321.35,143.00 323.00,143.00 C324.65,143.00 326.00,142.55 326.00,142.00 ZM 335.00 131.61 C335.00,125.07 334.67,123.09 333.50,122.64 C329.92,121.26 329.00,122.96 329.00,130.94 C329.00,135.19 329.30,138.97 329.67,139.33 C330.03,139.70 331.38,140.00 332.67,140.00 C334.93,140.00 335.00,139.73 335.00,131.61 ZM 291.00 130.11 C291.00,124.90 290.63,123.07 289.50,122.64 C286.02,121.30 285.00,122.99 285.00,130.11 L 285.00 137.00 L 288.00 137.00 L 291.00 137.00 L 291.00 130.11 ZM 361.00 132.06 C361.00,127.63 360.31,126.84 357.17,127.66 C355.41,128.13 355.00,128.97 355.00,132.12 C355.00,135.76 355.18,136.00 358.00,136.00 C360.83,136.00 361.00,135.77 361.00,132.06 ZM 370.00 125.11 C370.00,116.35 369.71,114.10 368.50,113.64 C364.69,112.18 364.00,113.83 364.00,124.44 C364.00,130.06 364.30,134.97 364.67,135.33 C365.03,135.70 366.38,136.00 367.67,136.00 C369.97,136.00 370.00,135.85 370.00,125.11 ZM 273.80 128.38 C274.02,124.48 273.73,123.11 272.55,122.66 C269.38,121.44 268.00,123.04 268.00,127.94 C268.00,133.28 268.55,134.21 271.46,133.79 C273.16,133.55 273.55,132.65 273.80,128.38 ZM 193.56 124.00 C194.65,124.00 195.00,122.55 195.00,118.00 C195.00,113.33 194.67,112.00 193.50,112.00 C192.57,112.00 191.94,110.96 191.85,109.25 L 191.70 106.50 L 191.28 109.25 C191.05,110.76 190.45,112.00 189.93,112.00 C189.42,112.00 189.00,114.70 189.00,118.00 C189.00,121.33 189.44,124.00 190.00,124.00 C190.55,124.00 191.07,125.46 191.16,127.25 L 191.32 130.50 L 191.72 127.25 C191.97,125.28 192.69,124.00 193.56,124.00 ZM 343.80 124.38 C344.02,121.37 343.68,120.09 342.55,119.66 C339.62,118.53 338.00,120.06 338.00,123.94 C338.00,128.28 338.65,129.19 341.46,128.79 C343.08,128.56 343.56,127.64 343.80,124.38 ZM 353.00 127.11 C353.00,124.99 350.77,123.77 348.50,124.64 C347.67,124.95 347.00,126.07 347.00,127.11 C347.00,128.54 347.72,129.00 350.00,129.00 C352.28,129.00 353.00,128.54 353.00,127.11 ZM 158.57 117.70 C160.20,116.79 160.55,110.00 158.97,110.00 C158.40,110.00 157.53,108.99 157.03,107.75 L 156.13 105.50 L 156.06 107.75 C156.03,108.99 155.55,110.00 155.00,110.00 C154.45,110.00 154.00,111.55 154.00,113.44 C154.00,115.33 154.45,117.16 155.00,117.50 C155.55,117.84 156.08,120.23 156.17,122.81 L 156.35 127.50 L 156.74 123.00 C156.96,120.49 157.77,118.15 158.57,117.70 ZM 282.00 123.50 C282.00,121.39 281.53,121.00 279.00,121.00 C276.76,121.00 276.00,121.46 276.00,122.83 C276.00,125.26 276.85,126.00 279.67,126.00 C281.49,126.00 282.00,125.45 282.00,123.50 ZM 186.00 123.00 C186.00,121.44 185.33,121.00 183.00,121.00 C180.67,121.00 180.00,121.44 180.00,123.00 C180.00,124.56 180.67,125.00 183.00,125.00 C185.33,125.00 186.00,124.56 186.00,123.00 ZM 177.00 115.50 C177.00,113.39 176.53,113.00 174.00,113.00 C171.47,113.00 171.00,113.39 171.00,115.50 C171.00,117.61 171.47,118.00 174.00,118.00 C176.53,118.00 177.00,117.61 177.00,115.50 ZM 168.00 112.06 C168.00,106.63 167.42,105.82 164.17,106.66 C162.32,107.15 162.00,107.94 162.00,112.12 C162.00,116.88 162.08,117.00 165.00,117.00 C167.93,117.00 168.00,116.88 168.00,112.06 ZM 151.00 102.11 C151.00,91.57 150.73,89.11 149.50,88.64 C145.52,87.11 145.00,88.68 145.00,102.11 L 145.00 115.00 L 148.00 115.00 L 151.00 115.00 L 151.00 102.11 ZM 378.80 108.38 C379.13,106.08 376.96,104.70 374.50,105.64 C372.95,106.23 372.46,109.13 373.71,110.38 C375.13,111.80 378.50,110.48 378.80,108.38 ZM 387.81 108.75 C388.07,107.39 387.46,107.00 385.07,107.00 C382.15,107.00 380.99,108.66 382.71,110.38 C383.98,111.65 387.47,110.54 387.81,108.75 ZM 396.00 99.56 C396.00,92.63 395.53,91.79 392.17,92.66 C390.23,93.17 390.00,93.90 390.00,99.62 L 390.00 106.00 L 393.00 106.00 L 396.00 106.00 L 396.00 99.56 ZM 405.00 98.00 C405.00,96.44 404.33,96.00 402.00,96.00 C399.67,96.00 399.00,96.44 399.00,98.00 C399.00,99.56 399.67,100.00 402.00,100.00 C404.33,100.00 405.00,99.56 405.00,98.00 ZM 115.81 95.25 C116.11,92.22 115.92,92.00 113.06,92.00 C110.37,92.00 110.00,92.34 110.00,94.83 C110.00,98.28 110.78,99.17 113.46,98.79 C114.95,98.58 115.58,97.63 115.81,95.25 ZM 107.00 89.50 L 107.00 83.00 L 104.00 83.00 L 101.00 83.00 L 101.00 89.50 L 101.00 96.00 L 104.00 96.00 L 107.00 96.00 L 107.00 89.50 ZM 414.00 93.00 C414.00,90.33 413.67,90.00 411.00,90.00 C408.52,90.00 408.00,90.41 408.00,92.33 C408.00,95.27 408.73,96.00 411.67,96.00 C413.59,96.00 414.00,95.48 414.00,93.00 ZM 72.00 86.00 L 72.00 77.00 L 69.00 77.00 L 66.00 77.00 L 66.00 85.33 C66.00,89.92 66.30,93.97 66.67,94.33 C67.03,94.70 68.38,95.00 69.67,95.00 C71.94,95.00 72.00,94.76 72.00,86.00 ZM 423.00 87.78 C423.00,85.09 422.57,84.00 421.50,84.00 C420.67,84.00 419.95,83.21 419.88,82.25 C419.77,80.58 419.75,80.58 419.31,82.25 C419.06,83.21 418.44,84.00 417.93,84.00 C416.61,84.00 416.78,90.67 418.15,92.87 C419.21,94.57 419.46,94.59 421.15,93.14 C422.34,92.12 423.00,90.21 423.00,87.78 ZM 142.00 84.50 L 142.00 77.00 L 139.00 77.00 L 136.00 77.00 L 136.00 84.50 L 136.00 92.00 L 139.00 92.00 L 142.00 92.00 L 142.00 84.50 ZM 125.00 75.61 C125.00,66.93 124.15,65.24 120.50,66.64 C119.33,67.09 119.00,69.07 119.00,75.61 L 119.00 84.00 L 122.00 84.00 L 125.00 84.00 L 125.00 75.61 ZM 98.00 75.00 L 98.00 67.00 L 95.00 67.00 L 92.00 67.00 L 92.00 74.33 C92.00,78.37 92.30,81.97 92.67,82.33 C93.03,82.70 94.38,83.00 95.67,83.00 C97.92,83.00 98.00,82.71 98.00,75.00 ZM 63.00 69.50 L 63.00 60.00 L 60.00 60.00 L 57.00 60.00 L 57.00 68.83 C57.00,73.69 57.30,77.97 57.67,78.33 C58.03,78.70 59.38,79.00 60.67,79.00 C62.95,79.00 63.00,78.79 63.00,69.50 ZM 133.00 72.50 C133.00,69.28 132.76,69.00 130.00,69.00 C127.37,69.00 127.00,69.35 127.00,71.83 C127.00,75.28 127.64,76.00 130.67,76.00 C132.67,76.00 133.00,75.50 133.00,72.50 ZM 80.81 69.25 C81.11,66.22 80.92,66.00 78.06,66.00 C75.37,66.00 75.00,66.34 75.00,68.83 C75.00,72.28 75.78,73.17 78.46,72.79 C79.95,72.58 80.58,71.63 80.81,69.25 ZM 54.00 68.06 C54.00,63.63 53.31,62.84 50.17,63.66 C48.51,64.10 48.00,64.99 48.00,67.45 C48.00,71.28 48.58,72.00 51.67,72.00 C53.72,72.00 54.00,71.52 54.00,68.06 ZM 44.57 67.00 C45.57,67.00 46.00,65.80 46.00,63.00 C46.00,60.11 45.58,59.00 44.50,59.00 C43.67,59.00 42.95,58.21 42.88,57.25 C42.77,55.58 42.75,55.58 42.31,57.25 C42.06,58.21 41.44,59.00 40.93,59.00 C40.42,59.00 40.00,60.80 40.00,63.00 C40.00,65.20 40.45,67.00 41.00,67.00 C41.55,67.00 42.06,68.01 42.14,69.25 L 42.27 71.50 L 42.71 69.25 C42.94,68.01 43.78,67.00 44.57,67.00 ZM 89.76 68.25 C90.02,67.43 89.10,67.00 87.08,67.00 C84.11,67.00 83.22,67.89 84.71,69.38 C85.78,70.45 89.29,69.67 89.76,68.25 ZM 37.00 51.00 C37.00,47.22 36.83,47.00 34.00,47.00 C31.27,47.00 31.00,47.30 31.00,50.33 C31.00,54.28 31.56,55.00 34.67,55.00 C36.72,55.00 37.00,54.52 37.00,51.00 ZM 11.00 42.61 C11.00,34.97 10.04,33.28 6.50,34.64 C5.35,35.08 5.00,36.96 5.00,42.61 L 5.00 50.00 L 8.00 50.00 L 11.00 50.00 L 11.00 42.61 ZM 28.00 42.50 C28.00,39.28 27.76,39.00 25.00,39.00 C22.24,39.00 22.00,39.28 22.00,42.50 C22.00,45.72 22.24,46.00 25.00,46.00 C27.76,46.00 28.00,45.72 28.00,42.50 ZM 19.00 33.50 C19.00,29.17 18.89,29.00 16.00,29.00 C13.11,29.00 13.00,29.17 13.00,33.50 C13.00,37.83 13.11,38.00 16.00,38.00 C18.89,38.00 19.00,37.83 19.00,33.50 Z" fill="rgb(254,254,254)"/>
</g>
</svg>